<svg xmlns="http://www.w3.org/2000/svg" viewBox="0 0 40 40" width="40" height="40" role="img" aria-label="GestPro">
  <title>GestPro</title>
  <!-- Símbolo isolado (favicon, avatar). Cor: primary do tema claro. -->
  <rect x="2" y="2" width="36" height="36" rx="10" fill="#2257d8"/>
  <path d="M8 20C8 13.3726 13.3726 8 20 8C24.2 8 27.8 10.16 29.9 13.5L25.6 16C24.3 13.9 22.3 12.5 20 12.5C15.8579 12.5 12.5 15.8579 12.5 20C12.5 24.1421 15.8579 27.5 20 27.5C23.2 27.5 25.9 25.5 27 22.5H19V18H31.5V20C31.5 26.6274 26.1274 32 20 32C13.3726 32 8 26.6274 8 20Z" fill="#ffffff"/>
  <circle cx="28" cy="12" r="3" fill="#93b4ff"/>
</svg>
