<svg xmlns="http://www.w3.org/2000/svg" viewBox="0 0 1240 720" width="1240" height="720" role="img">
<defs>
  <marker id="ar" viewBox="0 0 10 10" refX="9" refY="5" markerWidth="7" markerHeight="7" orient="auto-start-reverse">
    <path d="M0 0 L10 5 L0 10 z" fill="#40506a"/></marker>
  <marker id="arB" viewBox="0 0 10 10" refX="9" refY="5" markerWidth="7" markerHeight="7" orient="auto-start-reverse">
    <path d="M0 0 L10 5 L0 10 z" fill="#1f5f9e"/></marker>
  <marker id="arG" viewBox="0 0 10 10" refX="9" refY="5" markerWidth="7" markerHeight="7" orient="auto-start-reverse">
    <path d="M0 0 L10 5 L0 10 z" fill="#0d7a63"/></marker>
  <marker id="arP" viewBox="0 0 10 10" refX="9" refY="5" markerWidth="7" markerHeight="7" orient="auto-start-reverse">
    <path d="M0 0 L10 5 L0 10 z" fill="#68409c"/></marker>
  <marker id="arR" viewBox="0 0 10 10" refX="9" refY="5" markerWidth="7" markerHeight="7" orient="auto-start-reverse">
    <path d="M0 0 L10 5 L0 10 z" fill="#a8232f"/></marker>
  <marker id="arA" viewBox="0 0 10 10" refX="9" refY="5" markerWidth="7" markerHeight="7" orient="auto-start-reverse">
    <path d="M0 0 L10 5 L0 10 z" fill="#a35c07"/></marker>
  <marker id="hollow" viewBox="0 0 12 12" refX="11" refY="6" markerWidth="9" markerHeight="9" orient="auto">
    <path d="M0 0 L11 6 L0 12 z" fill="#ffffff" stroke="#40506a" stroke-width="1.2"/></marker>
  <marker id="dot" viewBox="0 0 8 8" refX="4" refY="4" markerWidth="5" markerHeight="5">
    <circle cx="4" cy="4" r="3" fill="#40506a"/></marker>
</defs>
<rect x="0" y="0" width="1240" height="720" rx="6" fill="#ffffff"/>
<text x="30" y="28" font-family='"Carlito", "DejaVu Sans", sans-serif' font-size="11.6" fill="#5d6b7c" text-anchor="start" font-weight="700">Do commit à produção — gates de qualidade, imagem e infraestrutura</text>
<rect x="30" y="58" width="268" height="240" rx="10" fill="none" stroke="#40506a" stroke-width="1.1" stroke-dasharray="5 4"/>
<rect x="42" y="50" width="57.26" height="16" rx="4" fill="#ffffff" stroke="none" stroke-width="1.2"/>
<text x="49" y="62" font-family='"Carlito", "DejaVu Sans", sans-serif' font-size="10.5" fill="#40506a" text-anchor="start" font-weight="700">1. Local</text>
<rect x="48" y="84" width="232" height="51.2" rx="7" fill="#e6eff8" stroke="#1f5f9e" stroke-width="1.1"/>
<path d="M55 84 h-7 a7 7 0 0 0 -7 7 v37.2 a7 7 0 0 0 7 7 h0 v-51.2 z" fill="#1f5f9e"/>
<rect x="48" y="84" width="3.4" height="51.2" rx="1.6" fill="#1f5f9e"/>
<text x="59" y="101.0" font-family='"Carlito", "DejaVu Sans", sans-serif' font-size="10.4" fill="#16202e" text-anchor="start" font-weight="700">pnpm check</text>
<text x="59" y="117.688" font-family='"Carlito", "DejaVu Sans", sans-serif' font-size="8.8" fill="#5d6b7c" text-anchor="start">prisma validate + tsc --noEmit + eslint + vitest</text>
<rect x="48" y="145.2" width="232" height="39.6" rx="7" fill="#fbf0dd" stroke="#a35c07" stroke-width="1.1"/>
<path d="M55 145.2 h-7 a7 7 0 0 0 -7 7 v25.6 a7 7 0 0 0 7 7 h0 v-39.6 z" fill="#a35c07"/>
<rect x="48" y="145.2" width="3.4" height="39.6" rx="1.6" fill="#a35c07"/>
<text x="59" y="162.2" font-family='"Carlito", "DejaVu Sans", sans-serif' font-size="10.4" fill="#16202e" text-anchor="start" font-weight="700">pnpm gates</text>
<text x="59" y="178.88799999999998" font-family='"Carlito", "DejaVu Sans", sans-serif' font-size="8.8" fill="#5d6b7c" text-anchor="start">3 gates de arquitectura (script próprio)</text>
<rect x="48" y="194.79999999999998" width="232" height="39.6" rx="7" fill="#eee7f7" stroke="#68409c" stroke-width="1.1"/>
<path d="M55 194.79999999999998 h-7 a7 7 0 0 0 -7 7 v25.6 a7 7 0 0 0 7 7 h0 v-39.6 z" fill="#68409c"/>
<rect x="48" y="194.79999999999998" width="3.4" height="39.6" rx="1.6" fill="#68409c"/>
<text x="59" y="211.79999999999998" font-family='"Carlito", "DejaVu Sans", sans-serif' font-size="10.4" fill="#16202e" text-anchor="start" font-weight="700">pnpm e2e</text>
<text x="59" y="228.48799999999997" font-family='"Carlito", "DejaVu Sans", sans-serif' font-size="8.8" fill="#5d6b7c" text-anchor="start">Playwright contra build de produção</text>
<rect x="48" y="244.39999999999998" width="232" height="51.2" rx="7" fill="#fbe8ea" stroke="#a8232f" stroke-width="1.1"/>
<path d="M55 244.39999999999998 h-7 a7 7 0 0 0 -7 7 v37.2 a7 7 0 0 0 7 7 h0 v-51.2 z" fill="#a8232f"/>
<rect x="48" y="244.39999999999998" width="3.4" height="51.2" rx="1.6" fill="#a8232f"/>
<text x="59" y="261.4" font-family='"Carlito", "DejaVu Sans", sans-serif' font-size="10.4" fill="#16202e" text-anchor="start" font-weight="700">smoke autenticado</text>
<text x="59" y="278.08799999999997" font-family='"Carlito", "DejaVu Sans", sans-serif' font-size="8.8" fill="#5d6b7c" text-anchor="start">login real — apanha erros de RSC que o check não</text>
<text x="59" y="289.52799999999996" font-family='"Carlito", "DejaVu Sans", sans-serif' font-size="8.8" fill="#5d6b7c" text-anchor="start">vê</text>
<rect x="322" y="58" width="560" height="240" rx="10" fill="none" stroke="#0d7a63" stroke-width="1.1" stroke-dasharray="5 4"/>
<rect x="334" y="50" width="387.1175" height="16" rx="4" fill="#ffffff" stroke="none" stroke-width="1.2"/>
<text x="341" y="62" font-family='"Carlito", "DejaVu Sans", sans-serif' font-size="10.5" fill="#0d7a63" text-anchor="start" font-weight="700">2. CI  ·  GitHub Actions  —  8 jobs obrigatórios para o merge em main</text>
<rect x="340" y="86" width="258" height="46" rx="6" fill="#ffffff" stroke="#0d7a63" stroke-width="1.1"/>
<circle cx="356" cy="109" r="8" fill="#e2f2ee" stroke="#0d7a63" stroke-width="1.1"/>
<path d="M352 109 l3 4 l6 -8" fill="none" stroke="#0d7a63" stroke-width="1.6"/>
<text x="372" y="105" font-family='"DejaVu Sans Mono", monospace' font-size="10" fill="#16202e" text-anchor="start" font-weight="700">lint-type</text>
<text x="372" y="120" font-family='"Carlito", "DejaVu Sans", sans-serif' font-size="8.5" fill="#5d6b7c" text-anchor="start">prisma validate · tsc · eslint</text>
<rect x="612" y="86" width="258" height="46" rx="6" fill="#ffffff" stroke="#0d7a63" stroke-width="1.1"/>
<circle cx="628" cy="109" r="8" fill="#e2f2ee" stroke="#0d7a63" stroke-width="1.1"/>
<path d="M624 109 l3 4 l6 -8" fill="none" stroke="#0d7a63" stroke-width="1.6"/>
<text x="644" y="105" font-family='"DejaVu Sans Mono", monospace' font-size="10" fill="#16202e" text-anchor="start" font-weight="700">gates</text>
<text x="644" y="120" font-family='"Carlito", "DejaVu Sans", sans-serif' font-size="8.5" fill="#5d6b7c" text-anchor="start">dialog · use-client · data-imports</text>
<rect x="340" y="142" width="258" height="46" rx="6" fill="#ffffff" stroke="#0d7a63" stroke-width="1.1"/>
<circle cx="356" cy="165" r="8" fill="#e2f2ee" stroke="#0d7a63" stroke-width="1.1"/>
<path d="M352 165 l3 4 l6 -8" fill="none" stroke="#0d7a63" stroke-width="1.6"/>
<text x="372" y="161" font-family='"DejaVu Sans Mono", monospace' font-size="10" fill="#16202e" text-anchor="start" font-weight="700">test</text>
<text x="372" y="176" font-family='"Carlito", "DejaVu Sans", sans-serif' font-size="8.5" fill="#5d6b7c" text-anchor="start">vitest + cobertura (≥80% por WS)</text>
<rect x="612" y="142" width="258" height="46" rx="6" fill="#ffffff" stroke="#0d7a63" stroke-width="1.1"/>
<circle cx="628" cy="165" r="8" fill="#e2f2ee" stroke="#0d7a63" stroke-width="1.1"/>
<path d="M624 165 l3 4 l6 -8" fill="none" stroke="#0d7a63" stroke-width="1.6"/>
<text x="644" y="161" font-family='"DejaVu Sans Mono", monospace' font-size="10" fill="#16202e" text-anchor="start" font-weight="700">integration</text>
<text x="644" y="176" font-family='"Carlito", "DejaVu Sans", sans-serif' font-size="8.5" fill="#5d6b7c" text-anchor="start">Testcontainers · Postgres efémero</text>
<rect x="340" y="198" width="258" height="46" rx="6" fill="#ffffff" stroke="#0d7a63" stroke-width="1.1"/>
<circle cx="356" cy="221" r="8" fill="#e2f2ee" stroke="#0d7a63" stroke-width="1.1"/>
<path d="M352 221 l3 4 l6 -8" fill="none" stroke="#0d7a63" stroke-width="1.6"/>
<text x="372" y="217" font-family='"DejaVu Sans Mono", monospace' font-size="10" fill="#16202e" text-anchor="start" font-weight="700">e2e</text>
<text x="372" y="232" font-family='"Carlito", "DejaVu Sans", sans-serif' font-size="8.5" fill="#5d6b7c" text-anchor="start">Playwright · 5+ fluxos críticos</text>
<rect x="612" y="198" width="258" height="46" rx="6" fill="#ffffff" stroke="#0d7a63" stroke-width="1.1"/>
<circle cx="628" cy="221" r="8" fill="#e2f2ee" stroke="#0d7a63" stroke-width="1.1"/>
<path d="M624 221 l3 4 l6 -8" fill="none" stroke="#0d7a63" stroke-width="1.6"/>
<text x="644" y="217" font-family='"DejaVu Sans Mono", monospace' font-size="10" fill="#16202e" text-anchor="start" font-weight="700">a11y</text>
<text x="644" y="232" font-family='"Carlito", "DejaVu Sans", sans-serif' font-size="8.5" fill="#5d6b7c" text-anchor="start">axe · WCAG 2.2 AA</text>
<rect x="340" y="254" width="258" height="46" rx="6" fill="#ffffff" stroke="#0d7a63" stroke-width="1.1"/>
<circle cx="356" cy="277" r="8" fill="#e2f2ee" stroke="#0d7a63" stroke-width="1.1"/>
<path d="M352 277 l3 4 l6 -8" fill="none" stroke="#0d7a63" stroke-width="1.6"/>
<text x="372" y="273" font-family='"DejaVu Sans Mono", monospace' font-size="10" fill="#16202e" text-anchor="start" font-weight="700">site</text>
<text x="372" y="288" font-family='"Carlito", "DejaVu Sans", sans-serif' font-size="8.5" fill="#5d6b7c" text-anchor="start">lint/typecheck/test do apps/site</text>
<rect x="612" y="254" width="258" height="46" rx="6" fill="#ffffff" stroke="#0d7a63" stroke-width="1.1"/>
<circle cx="628" cy="277" r="8" fill="#e2f2ee" stroke="#0d7a63" stroke-width="1.1"/>
<path d="M624 277 l3 4 l6 -8" fill="none" stroke="#0d7a63" stroke-width="1.6"/>
<text x="644" y="273" font-family='"DejaVu Sans Mono", monospace' font-size="10" fill="#16202e" text-anchor="start" font-weight="700">build</text>
<text x="644" y="288" font-family='"Carlito", "DejaVu Sans", sans-serif' font-size="8.5" fill="#5d6b7c" text-anchor="start">turbo run build · 2 apps</text>
<rect x="906" y="58" width="304" height="240" rx="10" fill="none" stroke="#68409c" stroke-width="1.1" stroke-dasharray="5 4"/>
<rect x="918" y="50" width="62.667500000000004" height="16" rx="4" fill="#ffffff" stroke="none" stroke-width="1.2"/>
<text x="925" y="62" font-family='"Carlito", "DejaVu Sans", sans-serif' font-size="10.5" fill="#68409c" text-anchor="start" font-weight="700">3. Imagem</text>
<rect x="922" y="84" width="272" height="84" rx="7" fill="#eee7f7" stroke="#68409c" stroke-width="1.1"/>
<path d="M929 84 h-7 a7 7 0 0 0 -7 7 v70 a7 7 0 0 0 7 7 h0 v-84 z" fill="#68409c"/>
<rect x="922" y="84" width="3.4" height="84" rx="1.6" fill="#68409c"/>
<text x="933" y="101.0" font-family='"Carlito", "DejaVu Sans", sans-serif' font-size="10.6" fill="#16202e" text-anchor="start" font-weight="700">Dockerfile multi-stage</text>
<text x="933" y="117.932" font-family='"Carlito", "DejaVu Sans", sans-serif' font-size="8.8" fill="#5d6b7c" text-anchor="start">deps → build → runner (node:alpine). next.config output:</text>
<text x="933" y="129.372" font-family='"Carlito", "DejaVu Sans", sans-serif' font-size="8.8" fill="#5d6b7c" text-anchor="start">'standalone'; corre como utilizador não-root; HEALTHCHECK</text>
<text x="933" y="140.812" font-family='"Carlito", "DejaVu Sans", sans-serif' font-size="8.8" fill="#5d6b7c" text-anchor="start">a cada 30 s contra /api/health.</text>
<rect x="922" y="180" width="272" height="54" rx="7" fill="#eee7f7" stroke="#68409c" stroke-width="1.1"/>
<path d="M929 180 h-7 a7 7 0 0 0 -7 7 v40 a7 7 0 0 0 7 7 h0 v-54 z" fill="#68409c"/>
<rect x="922" y="180" width="3.4" height="54" rx="1.6" fill="#68409c"/>
<text x="933" y="197.0" font-family='"Carlito", "DejaVu Sans", sans-serif' font-size="10.6" fill="#16202e" text-anchor="start" font-weight="700">docker-entrypoint.sh</text>
<text x="933" y="213.932" font-family='"Carlito", "DejaVu Sans", sans-serif' font-size="8.8" fill="#5d6b7c" text-anchor="start">prisma migrate deploy antes de arrancar — nunca migrate</text>
<text x="933" y="225.37199999999999" font-family='"Carlito", "DejaVu Sans", sans-serif' font-size="8.8" fill="#5d6b7c" text-anchor="start">dev em produção.</text>
<rect x="922" y="246" width="272" height="44" rx="7" fill="#fbe8ea" stroke="#a8232f" stroke-width="1.1"/>
<path d="M929 246 h-7 a7 7 0 0 0 -7 7 v30 a7 7 0 0 0 7 7 h0 v-44 z" fill="#a8232f"/>
<rect x="922" y="246" width="3.4" height="44" rx="1.6" fill="#a8232f"/>
<text x="933" y="263.0" font-family='"Carlito", "DejaVu Sans", sans-serif' font-size="10.6" fill="#16202e" text-anchor="start" font-weight="700">Zero segredos na imagem</text>
<text x="933" y="279.932" font-family='"Carlito", "DejaVu Sans", sans-serif' font-size="8.8" fill="#5d6b7c" text-anchor="start">.tfvars e .tfstate são git-ignored.</text>
<rect x="30" y="340" width="1180" height="214" rx="10" fill="none" stroke="#1f5f9e" stroke-width="1.1" stroke-dasharray="5 4"/>
<rect x="42" y="332" width="598.01" height="16" rx="4" fill="#ffffff" stroke="none" stroke-width="1.2"/>
<text x="49" y="344" font-family='"Carlito", "DejaVu Sans", sans-serif' font-size="10.5" fill="#1f5f9e" text-anchor="start" font-weight="700">4. Infraestrutura como código  ·  Terraform (infra/) — bootstrap do backend de estado + live/dev e live/prod</text>
<rect x="48" y="372" width="218" height="92" rx="7" fill="#e6eff8" stroke="#1f5f9e" stroke-width="1.1"/>
<path d="M55 372 h-7 a7 7 0 0 0 -7 7 v78 a7 7 0 0 0 7 7 h0 v-92 z" fill="#1f5f9e"/>
<rect x="48" y="372" width="3.4" height="92" rx="1.6" fill="#1f5f9e"/>
<text x="59" y="389.0" font-family='"Carlito", "DejaVu Sans", sans-serif' font-size="10.2" fill="#16202e" text-anchor="start" font-weight="700">module network</text>
<text x="59" y="405.444" font-family='"Carlito", "DejaVu Sans", sans-serif' font-size="8.7" fill="#5d6b7c" text-anchor="start">VPC, sub-redes privadas, NAT</text>
<rect x="276" y="372" width="218" height="92" rx="7" fill="#e6eff8" stroke="#1f5f9e" stroke-width="1.1"/>
<path d="M283 372 h-7 a7 7 0 0 0 -7 7 v78 a7 7 0 0 0 7 7 h0 v-92 z" fill="#1f5f9e"/>
<rect x="276" y="372" width="3.4" height="92" rx="1.6" fill="#1f5f9e"/>
<text x="287" y="389.0" font-family='"Carlito", "DejaVu Sans", sans-serif' font-size="10.2" fill="#16202e" text-anchor="start" font-weight="700">module rds</text>
<text x="287" y="405.444" font-family='"Carlito", "DejaVu Sans", sans-serif' font-size="8.7" fill="#5d6b7c" text-anchor="start">PostgreSQL 17, Performance Insights, backups</text>
<rect x="504" y="372" width="218" height="92" rx="7" fill="#fbf0dd" stroke="#a35c07" stroke-width="1.1"/>
<path d="M511 372 h-7 a7 7 0 0 0 -7 7 v78 a7 7 0 0 0 7 7 h0 v-92 z" fill="#a35c07"/>
<rect x="504" y="372" width="3.4" height="92" rx="1.6" fill="#a35c07"/>
<text x="515" y="389.0" font-family='"Carlito", "DejaVu Sans", sans-serif' font-size="10.2" fill="#16202e" text-anchor="start" font-weight="700">module secrets</text>
<text x="515" y="405.444" font-family='"Carlito", "DejaVu Sans", sans-serif' font-size="8.7" fill="#5d6b7c" text-anchor="start">AWS Secrets Manager — um segredo por chave</text>
<rect x="732" y="372" width="218" height="92" rx="7" fill="#e2f2ee" stroke="#0d7a63" stroke-width="1.1"/>
<path d="M739 372 h-7 a7 7 0 0 0 -7 7 v78 a7 7 0 0 0 7 7 h0 v-92 z" fill="#0d7a63"/>
<rect x="732" y="372" width="3.4" height="92" rx="1.6" fill="#0d7a63"/>
<text x="743" y="389.0" font-family='"Carlito", "DejaVu Sans", sans-serif' font-size="10.2" fill="#16202e" text-anchor="start" font-weight="700">module storage</text>
<text x="743" y="405.444" font-family='"Carlito", "DejaVu Sans", sans-serif' font-size="8.7" fill="#5d6b7c" text-anchor="start">Bucket S3 privado, SSE, CORS por allowlist,</text>
<text x="743" y="416.754" font-family='"Carlito", "DejaVu Sans", sans-serif' font-size="8.7" fill="#5d6b7c" text-anchor="start">lifecycle de multipart órfão</text>
<rect x="960" y="372" width="218" height="92" rx="7" fill="#eee7f7" stroke="#68409c" stroke-width="1.1"/>
<path d="M967 372 h-7 a7 7 0 0 0 -7 7 v78 a7 7 0 0 0 7 7 h0 v-92 z" fill="#68409c"/>
<rect x="960" y="372" width="3.4" height="92" rx="1.6" fill="#68409c"/>
<text x="971" y="389.0" font-family='"Carlito", "DejaVu Sans", sans-serif' font-size="10.2" fill="#16202e" text-anchor="start" font-weight="700">module app</text>
<text x="971" y="405.444" font-family='"Carlito", "DejaVu Sans", sans-serif' font-size="8.7" fill="#5d6b7c" text-anchor="start">AWS App Runner: imagem, variáveis, health</text>
<text x="971" y="416.754" font-family='"Carlito", "DejaVu Sans", sans-serif' font-size="8.7" fill="#5d6b7c" text-anchor="start">check, IAM mínima</text>
<rect x="48" y="478" width="1144" height="58" rx="7" fill="#fbf0dd" stroke="#a35c07" stroke-width="1.1"/>
<text x="64" y="498" font-family='"Carlito", "DejaVu Sans", sans-serif' font-size="10.2" fill="#a35c07" text-anchor="start" font-weight="700">Estado actual da infraestrutura</text>
<text x="64" y="514" font-family='"Carlito", "DejaVu Sans", sans-serif' font-size="9.2" fill="#a35c07" text-anchor="start">O código Terraform está escrito e revisto, mas terraform apply nunca foi executado — não houve credenciais AWS no ambiente de desenvolvimento.</text>
<text x="64" y="528" font-family='"Carlito", "DejaVu Sans", sans-serif' font-size="9.2" fill="#a35c07" text-anchor="start">Consequência: o deploy em produção continua por validar ponta-a-ponta. É o maior risco operacional em aberto.</text>
<path d="M298 178 H 318" fill="none" stroke="#40506a" stroke-width="1.4" marker-end="url(#ar)"/>
<path d="M882 178 H 902" fill="none" stroke="#40506a" stroke-width="1.4" marker-end="url(#ar)"/>
<path d="M1058 298 V 320 H 620 V 336" fill="none" stroke="#40506a" stroke-width="1.4" marker-end="url(#ar)"/>
<rect x="30" y="576" width="1180" height="120" rx="9" fill="#f2f6fa" stroke="#b9c4d2" stroke-width="1"/>
<text x="48" y="600" font-family='"Carlito", "DejaVu Sans", sans-serif' font-size="11.6" fill="#16202e" text-anchor="start" font-weight="700">Cobertura de verificação hoje</text>
<rect x="48" y="618" width="182" height="62" rx="7" fill="#ffffff" stroke="#0d7a63" stroke-width="1.1"/>
<text x="139" y="646" font-family='"Carlito", "DejaVu Sans", sans-serif' font-size="19" fill="#0d7a63" text-anchor="middle" font-weight="700">1 199</text>
<text x="139" y="660" font-family='"Carlito", "DejaVu Sans", sans-serif' font-size="8.4" fill="#5d6b7c" text-anchor="middle">testes automatizados (vitest)</text>
<rect x="242" y="618" width="182" height="62" rx="7" fill="#ffffff" stroke="#0d7a63" stroke-width="1.1"/>
<text x="333" y="646" font-family='"Carlito", "DejaVu Sans", sans-serif' font-size="19" fill="#0d7a63" text-anchor="middle" font-weight="700">77</text>
<text x="333" y="660" font-family='"Carlito", "DejaVu Sans", sans-serif' font-size="8.4" fill="#5d6b7c" text-anchor="middle">ficheiros de teste unitário e de</text>
<text x="333" y="670" font-family='"Carlito", "DejaVu Sans", sans-serif' font-size="8.4" fill="#5d6b7c" text-anchor="middle">propriedade</text>
<rect x="436" y="618" width="182" height="62" rx="7" fill="#ffffff" stroke="#a35c07" stroke-width="1.1"/>
<text x="527" y="646" font-family='"Carlito", "DejaVu Sans", sans-serif' font-size="19" fill="#a35c07" text-anchor="middle" font-weight="700">36 / 37</text>
<text x="527" y="660" font-family='"Carlito", "DejaVu Sans", sans-serif' font-size="8.4" fill="#5d6b7c" text-anchor="middle">cenários E2E Playwright verdes</text>
<rect x="630" y="618" width="182" height="62" rx="7" fill="#ffffff" stroke="#0d7a63" stroke-width="1.1"/>
<text x="721" y="646" font-family='"Carlito", "DejaVu Sans", sans-serif' font-size="19" fill="#0d7a63" text-anchor="middle" font-weight="700">32 / 32</text>
<text x="721" y="660" font-family='"Carlito", "DejaVu Sans", sans-serif' font-size="8.4" fill="#5d6b7c" text-anchor="middle">verificações axe WCAG 2.2 AA no site</text>
<text x="721" y="670" font-family='"Carlito", "DejaVu Sans", sans-serif' font-size="8.4" fill="#5d6b7c" text-anchor="middle">público</text>
<rect x="824" y="618" width="182" height="62" rx="7" fill="#ffffff" stroke="#0d7a63" stroke-width="1.1"/>
<text x="915" y="646" font-family='"Carlito", "DejaVu Sans", sans-serif' font-size="19" fill="#0d7a63" text-anchor="middle" font-weight="700">3</text>
<text x="915" y="660" font-family='"Carlito", "DejaVu Sans", sans-serif' font-size="8.4" fill="#5d6b7c" text-anchor="middle">gates de arquitectura a zero violações</text>
<rect x="1018" y="618" width="182" height="62" rx="7" fill="#ffffff" stroke="#1f5f9e" stroke-width="1.1"/>
<text x="1109" y="646" font-family='"Carlito", "DejaVu Sans", sans-serif' font-size="19" fill="#1f5f9e" text-anchor="middle" font-weight="700">8</text>
<text x="1109" y="660" font-family='"Carlito", "DejaVu Sans", sans-serif' font-size="8.4" fill="#5d6b7c" text-anchor="middle">jobs de CI obrigatórios</text>
</svg>